<svg width="375" height="254" viewBox="0 0 375 254" fill="none" xmlns="http://www.w3.org/2000/svg">
<g filter="url(#filter0_d)">
<path d="M-1.83105 148.862L45.6651 146.82C160.824 141.867 273.854 114.099 378.198 65.1249V65.1249" stroke="#ADF9FF" stroke-width="4"/>
</g>
<circle cx="70.5" cy="146.5" r="7.5" fill="#ADF9FF"/>
<circle cx="148.5" cy="135.5" r="7.5" fill="#ADF9FF"/>
<circle cx="226.5" cy="118.5" r="7.5" fill="#ADF9FF"/>
<circle cx="304.5" cy="95.5" r="7.5" fill="#ADF9FF"/>
<path d="M9.13741 55V46.36H17.1174V48.232H11.0214V49.744H15.9294V51.616H11.0214V53.128H17.1174V55H9.13741ZM18.3249 55V48.136C18.3249 47.648 18.4969 47.232 18.8409 46.888C19.1929 46.536 19.6129 46.36 20.1009 46.36H25.1769C25.6649 46.36 26.0849 46.536 26.4369 46.888C26.7889 47.232 26.9649 47.648 26.9649 48.136V55H25.0809V52.216H20.1849V55H18.3249ZM20.1849 50.344H25.0809V48.628C25.0809 48.364 25.0809 48.232 25.0809 48.232C25.0809 48.232 24.9489 48.232 24.6849 48.232H20.5809C20.3169 48.232 20.1849 48.232 20.1849 48.232C20.1849 48.232 20.1849 48.364 20.1849 48.628V50.344ZM28.3202 55V46.372H35.1722C35.6602 46.372 36.0802 46.548 36.4322 46.9C36.7842 47.252 36.9602 47.668 36.9602 48.148V50.38C36.9602 50.86 36.7842 51.276 36.4322 51.628C36.0802 51.98 35.6602 52.156 35.1722 52.156H35.0882L36.9602 54.364V55H35.0402L32.6522 52.156L30.1802 52.168V55H28.3202ZM30.5762 50.284H34.6802C34.9442 50.284 35.0762 50.284 35.0762 50.284C35.0762 50.284 35.0762 50.152 35.0762 49.888V48.628C35.0762 48.364 35.0762 48.232 35.0762 48.232C35.0762 48.232 34.9442 48.232 34.6802 48.232H30.5762C30.3122 48.232 30.1802 48.232 30.1802 48.232C30.1802 48.232 30.1802 48.364 30.1802 48.628V49.888C30.1802 50.152 30.1802 50.284 30.1802 50.284C30.1802 50.284 30.3122 50.284 30.5762 50.284ZM38.2345 55V46.36H40.1545L44.9905 52.12V46.36H46.8745V55H44.9545L40.0945 49.216V55H38.2345ZM52.0381 55V46.36H53.8741V55H52.0381ZM54.6525 55V46.36H56.5725L61.4085 52.12V46.36H63.2925V55H61.3725L56.5125 49.216V55H54.6525ZM64.6608 55V46.36H71.5128C72.0008 46.36 72.4208 46.536 72.7728 46.888C73.1248 47.232 73.3008 47.648 73.3008 48.136V53.224C73.3008 53.712 73.1248 54.132 72.7728 54.484C72.4208 54.828 72.0008 55 71.5128 55H64.6608ZM66.9168 53.128H71.0208C71.2848 53.128 71.4168 53.128 71.4168 53.128C71.4168 53.128 71.4168 52.996 71.4168 52.732V48.628C71.4168 48.364 71.4168 48.232 71.4168 48.232C71.4168 48.232 71.2848 48.232 71.0208 48.232H66.9168C66.6528 48.232 66.5208 48.232 66.5208 48.232C66.5208 48.232 66.5208 48.364 66.5208 48.628V52.732C66.5208 52.996 66.5208 53.128 66.5208 53.128C66.5208 53.128 66.6528 53.128 66.9168 53.128ZM74.5967 55V46.36H76.4327V55H74.5967ZM77.1991 55V46.372H84.0511C84.5391 46.372 84.9591 46.548 85.3111 46.9C85.6631 47.252 85.8391 47.668 85.8391 48.148V50.38C85.8391 50.86 85.6631 51.276 85.3111 51.628C84.9591 51.98 84.5391 52.156 84.0511 52.156H83.9671L85.8391 54.364V55H83.9191L81.5311 52.156L79.0591 52.168V55H77.1991ZM79.4551 50.284H83.5591C83.8231 50.284 83.9551 50.284 83.9551 50.284C83.9551 50.284 83.9551 50.152 83.9551 49.888V48.628C83.9551 48.364 83.9551 48.232 83.9551 48.232C83.9551 48.232 83.8231 48.232 83.5591 48.232H79.4551C79.1911 48.232 79.0591 48.232 79.0591 48.232C79.0591 48.232 79.0591 48.364 79.0591 48.628V49.888C79.0591 50.152 79.0591 50.284 79.0591 50.284C79.0591 50.284 79.1911 50.284 79.4551 50.284ZM87.1374 55V46.36H95.1174V48.232H89.0214V49.744H93.9294V51.616H89.0214V53.128H95.1174V55H87.1374ZM98.0769 55C97.5889 55 97.1689 54.828 96.8169 54.484C96.4729 54.132 96.3009 53.712 96.3009 53.224V48.136C96.3009 47.648 96.4729 47.232 96.8169 46.888C97.1689 46.536 97.5889 46.36 98.0769 46.36H104.917V48.232H98.5569C98.2929 48.232 98.1609 48.232 98.1609 48.232C98.1609 48.232 98.1609 48.364 98.1609 48.628V52.732C98.1609 52.996 98.1609 53.128 98.1609 53.128C98.1609 53.128 98.2929 53.128 98.5569 53.128H104.917V55H98.0769ZM109.12 55V48.232H105.736V46.36H114.376V48.232H110.992V55H109.12ZM115.286 55V46.348H117.146V53.128H123.926V55H115.286ZM126.173 55V51.772L122.177 46.36H124.397L127.109 49.768L129.809 46.36H132.053L128.045 51.784V55H126.173ZM132.289 56.596V53.296H134.125V54.808C134.125 55.24 133.949 55.624 133.597 55.96C133.245 56.296 132.809 56.508 132.289 56.596ZM20.0178 70L15.0138 61.36H17.1738L20.7978 67.636L24.4218 61.36H26.5698L21.5658 70H20.0178ZM27.2529 70V61.36H29.0889V70H27.2529ZM29.8913 70V63.136C29.8913 62.648 30.0633 62.232 30.4073 61.888C30.7593 61.536 31.1793 61.36 31.6673 61.36H36.7433C37.2313 61.36 37.6513 61.536 38.0033 61.888C38.3553 62.232 38.5313 62.648 38.5313 63.136V70H36.6473V67.216H31.7513V70H29.8913ZM31.7513 65.344H36.6473V63.628C36.6473 63.364 36.6473 63.232 36.6473 63.232C36.6473 63.232 36.5153 63.232 36.2513 63.232H32.1473C31.8833 63.232 31.7513 63.232 31.7513 63.232C31.7513 63.232 31.7513 63.364 31.7513 63.628V65.344ZM45.5178 70C45.0298 70 44.6098 69.828 44.2578 69.484C43.9138 69.132 43.7418 68.712 43.7418 68.224V63.136C43.7418 62.648 43.9138 62.232 44.2578 61.888C44.6098 61.536 45.0298 61.36 45.5178 61.36H50.6058C51.0858 61.36 51.5018 61.536 51.8538 61.888C52.2058 62.232 52.3818 62.648 52.3818 63.136V68.224C52.3818 68.712 52.2058 69.132 51.8538 69.484C51.5018 69.828 51.0858 70 50.6058 70H45.5178ZM45.9978 68.128H50.1018C50.3658 68.128 50.4978 68.128 50.4978 68.128C50.4978 68.128 50.4978 67.996 50.4978 67.732V63.628C50.4978 63.364 50.4978 63.232 50.4978 63.232C50.4978 63.232 50.3658 63.232 50.1018 63.232H45.9978C45.7338 63.232 45.6018 63.232 45.6018 63.232C45.6018 63.232 45.6018 63.364 45.6018 63.628V67.732C45.6018 67.996 45.6018 68.128 45.6018 68.128C45.6018 68.128 45.7338 68.128 45.9978 68.128ZM55.4553 70C54.9673 70 54.5473 69.828 54.1953 69.484C53.8513 69.132 53.6793 68.712 53.6793 68.224V61.36H55.5393V67.732C55.5393 67.996 55.5393 68.128 55.5393 68.128C55.5393 68.128 55.6713 68.128 55.9353 68.128H60.0393C60.3033 68.128 60.4353 68.128 60.4353 68.128C60.4353 68.128 60.4353 67.996 60.4353 67.732V61.36H62.3193V68.224C62.3193 68.712 62.1433 69.132 61.7913 69.484C61.4393 69.828 61.0233 70 60.5433 70H55.4553ZM63.6288 70V61.372H70.4808C70.9688 61.372 71.3888 61.548 71.7408 61.9C72.0928 62.252 72.2688 62.668 72.2688 63.148V65.38C72.2688 65.86 72.0928 66.276 71.7408 66.628C71.3888 66.98 70.9688 67.156 70.4808 67.156H70.3968L72.2688 69.364V70H70.3488L67.9608 67.156L65.4888 67.168V70H63.6288ZM65.8848 65.284H69.9888C70.2528 65.284 70.3848 65.284 70.3848 65.284C70.3848 65.284 70.3848 65.152 70.3848 64.888V63.628C70.3848 63.364 70.3848 63.232 70.3848 63.232C70.3848 63.232 70.2528 63.232 69.9888 63.232H65.8848C65.6208 63.232 65.4888 63.232 65.4888 63.232C65.4888 63.232 65.4888 63.364 65.4888 63.628V64.888C65.4888 65.152 65.4888 65.284 65.4888 65.284C65.4888 65.284 65.6208 65.284 65.8848 65.284ZM77.4343 70V61.36H85.4143V63.232H79.3183V64.744H84.2263V66.616H79.3183V70H77.4343ZM86.0942 70V61.348H87.9542V68.128H94.7342V70H86.0942ZM97.1857 70C96.6977 70 96.2777 69.828 95.9257 69.484C95.5817 69.132 95.4097 68.712 95.4097 68.224V63.136C95.4097 62.648 95.5817 62.232 95.9257 61.888C96.2777 61.536 96.6977 61.36 97.1857 61.36H102.274C102.754 61.36 103.17 61.536 103.522 61.888C103.874 62.232 104.05 62.648 104.05 63.136V68.224C104.05 68.712 103.874 69.132 103.522 69.484C103.17 69.828 102.754 70 102.274 70H97.1857ZM97.6657 68.128H101.77C102.034 68.128 102.166 68.128 102.166 68.128C102.166 68.128 102.166 67.996 102.166 67.732V63.628C102.166 63.364 102.166 63.232 102.166 63.232C102.166 63.232 102.034 63.232 101.77 63.232H97.6657C97.4017 63.232 97.2697 63.232 97.2697 63.232C97.2697 63.232 97.2697 63.364 97.2697 63.628V67.732C97.2697 67.996 97.2697 68.128 97.2697 68.128C97.2697 68.128 97.4017 68.128 97.6657 68.128ZM107.123 70C106.635 70 106.215 69.828 105.863 69.484C105.519 69.132 105.347 68.712 105.347 68.224V63.136C105.347 62.648 105.519 62.232 105.863 61.888C106.215 61.536 106.635 61.36 107.123 61.36H112.211C112.691 61.36 113.107 61.536 113.459 61.888C113.811 62.232 113.987 62.648 113.987 63.136V68.224C113.987 68.712 113.811 69.132 113.459 69.484C113.107 69.828 112.691 70 112.211 70H107.123ZM107.603 68.128H111.707C111.971 68.128 112.103 68.128 112.103 68.128C112.103 68.128 112.103 67.996 112.103 67.732V63.628C112.103 63.364 112.103 63.232 112.103 63.232C112.103 63.232 111.971 63.232 111.707 63.232H107.603C107.339 63.232 107.207 63.232 107.207 63.232C107.207 63.232 107.207 63.364 107.207 63.628V67.732C107.207 67.996 107.207 68.128 107.207 68.128C107.207 68.128 107.339 68.128 107.603 68.128ZM115.297 70V61.372H122.149C122.637 61.372 123.057 61.548 123.409 61.9C123.761 62.252 123.937 62.668 123.937 63.148V65.38C123.937 65.86 123.761 66.276 123.409 66.628C123.057 66.98 122.637 67.156 122.149 67.156H122.065L123.937 69.364V70H122.017L119.629 67.156L117.157 67.168V70H115.297ZM117.553 65.284H121.657C121.921 65.284 122.053 65.284 122.053 65.284C122.053 65.284 122.053 65.152 122.053 64.888V63.628C122.053 63.364 122.053 63.232 122.053 63.232C122.053 63.232 121.921 63.232 121.657 63.232H117.553C117.289 63.232 117.157 63.232 117.157 63.232C117.157 63.232 117.157 63.364 117.157 63.628V64.888C117.157 65.152 117.157 65.284 117.157 65.284C117.157 65.284 117.289 65.284 117.553 65.284ZM36.8928 85C36.4048 85 35.9848 84.828 35.6328 84.484C35.2888 84.132 35.1168 83.712 35.1168 83.224V82.42H36.9768V82.732C36.9768 82.996 36.9768 83.128 36.9768 83.128C36.9768 83.128 37.1088 83.128 37.3728 83.128H41.4768C41.7408 83.128 41.8728 83.128 41.8728 83.128C41.8728 83.128 41.8728 82.996 41.8728 82.732V82.012C41.8728 81.748 41.8728 81.616 41.8728 81.616C41.8728 81.616 41.7408 81.616 41.4768 81.616H36.8928C36.4048 81.616 35.9848 81.444 35.6328 81.1C35.2888 80.748 35.1168 80.328 35.1168 79.84V78.136C35.1168 77.648 35.2888 77.232 35.6328 76.888C35.9848 76.536 36.4048 76.36 36.8928 76.36H41.9808C42.4608 76.36 42.8768 76.536 43.2288 76.888C43.5808 77.232 43.7568 77.648 43.7568 78.136V78.94H41.8728V78.628C41.8728 78.364 41.8728 78.232 41.8728 78.232C41.8728 78.232 41.7408 78.232 41.4768 78.232H37.3728C37.1088 78.232 36.9768 78.232 36.9768 78.232C36.9768 78.232 36.9768 78.364 36.9768 78.628V79.348C36.9768 79.612 36.9768 79.744 36.9768 79.744C36.9768 79.744 37.1088 79.744 37.3728 79.744H41.9808C42.4608 79.744 42.8768 79.92 43.2288 80.272C43.5808 80.616 43.7568 81.032 43.7568 81.52V83.224C43.7568 83.712 43.5808 84.132 43.2288 84.484C42.8768 84.828 42.4608 85 41.9808 85H36.8928ZM47.5718 85L44.4278 76.36H46.4078L48.2918 81.508L50.1758 76.36H51.8918L53.7878 81.508L55.6718 76.36H57.6398L54.4958 85H53.0678L51.0278 79.444L48.9998 85H47.5718ZM58.8483 85V76.36H66.8283V78.232H60.7323V79.744H65.6403V81.616H60.7323V83.128H66.8283V85H58.8483ZM68.0358 85V76.36H76.0158V78.232H69.9198V79.744H74.8278V81.616H69.9198V83.128H76.0158V85H68.0358ZM77.1993 85V76.372H84.0513C84.5393 76.372 84.9593 76.548 85.3113 76.9C85.6633 77.252 85.8393 77.668 85.8393 78.148V80.38C85.8393 80.86 85.6633 81.276 85.3113 81.628C84.9593 81.98 84.5393 82.156 84.0513 82.156L79.0593 82.168V85H77.1993ZM79.4553 80.284H83.5593C83.8233 80.284 83.9553 80.284 83.9553 80.284C83.9553 80.284 83.9553 80.152 83.9553 79.888V78.628C83.9553 78.364 83.9553 78.232 83.9553 78.232C83.9553 78.232 83.8233 78.232 83.5593 78.232H79.4553C79.1913 78.232 79.0593 78.232 79.0593 78.232C79.0593 78.232 79.0593 78.364 79.0593 78.628V79.888C79.0593 80.152 79.0593 80.284 79.0593 80.284C79.0593 80.284 79.1913 80.284 79.4553 80.284ZM86.6435 85V76.36H88.4795V85H86.6435ZM89.2579 85V76.36H91.1779L96.0139 82.12V76.36H97.8979V85H95.9779L91.1179 79.216V85H89.2579ZM101.018 85C100.53 85 100.11 84.828 99.7583 84.484C99.4143 84.132 99.2423 83.712 99.2423 83.224V78.136C99.2423 77.648 99.4143 77.232 99.7583 76.888C100.11 76.536 100.53 76.36 101.018 76.36H106.094C106.582 76.36 107.002 76.536 107.354 76.888C107.706 77.232 107.882 77.648 107.882 78.136V78.952H105.998V78.628C105.998 78.364 105.998 78.232 105.998 78.232C105.998 78.232 105.866 78.232 105.602 78.232H101.498C101.234 78.232 101.102 78.232 101.102 78.232C101.102 78.232 101.102 78.364 101.102 78.628V82.732C101.102 82.996 101.102 83.128 101.102 83.128C101.102 83.128 101.234 83.128 101.498 83.128H105.602C105.866 83.128 105.998 83.128 105.998 83.128C105.998 83.128 105.998 82.996 105.998 82.732V81.832H104.126V79.96H107.882V83.224C107.882 83.712 107.706 84.132 107.354 84.484C107.002 84.828 106.582 85 106.094 85H101.018ZM30.1486 100V91.36H32.0686L34.9966 94.852L37.9126 91.36H39.8446V100H37.9726V94.204L34.9966 97.756L32.0086 94.216V100H30.1486ZM41.3054 100V91.36H49.2854V93.232H43.1894V94.744H48.0974V96.616H43.1894V98.128H49.2854V100H41.3054ZM52.2449 100C51.7569 100 51.3369 99.828 50.9849 99.484C50.6409 99.132 50.4689 98.712 50.4689 98.224V93.136C50.4689 92.648 50.6409 92.232 50.9849 91.888C51.3369 91.536 51.7569 91.36 52.2449 91.36H59.0849V93.232H52.7249C52.4609 93.232 52.3289 93.232 52.3289 93.232C52.3289 93.232 52.3289 93.364 52.3289 93.628V97.732C52.3289 97.996 52.3289 98.128 52.3289 98.128C52.3289 98.128 52.4609 98.128 52.7249 98.128H59.0849V100H52.2449ZM60.3481 100V91.36H62.2081V94.744H67.3081V91.36H69.1681V100H67.3081V96.616H62.2081V100H60.3481ZM70.5671 100V93.136C70.5671 92.648 70.7391 92.232 71.0831 91.888C71.4351 91.536 71.8551 91.36 72.3431 91.36H77.4191C77.9071 91.36 78.3271 91.536 78.6791 91.888C79.0311 92.232 79.2071 92.648 79.2071 93.136V100H77.3231V97.216H72.4271V100H70.5671ZM72.4271 95.344H77.3231V93.628C77.3231 93.364 77.3231 93.232 77.3231 93.232C77.3231 93.232 77.1911 93.232 76.9271 93.232H72.8231C72.5591 93.232 72.4271 93.232 72.4271 93.232C72.4271 93.232 72.4271 93.364 72.4271 93.628V95.344ZM80.5743 100V91.36H82.4943L87.3303 97.12V91.36H89.2143V100H87.2943L82.4343 94.216V100H80.5743ZM90.5107 100V91.36H92.3467V100H90.5107ZM94.8771 100C94.3891 100 93.9691 99.828 93.6171 99.484C93.2731 99.132 93.1011 98.712 93.1011 98.224V97.42H94.9611V97.732C94.9611 97.996 94.9611 98.128 94.9611 98.128C94.9611 98.128 95.0931 98.128 95.3571 98.128H99.4611C99.7251 98.128 99.8571 98.128 99.8571 98.128C99.8571 98.128 99.8571 97.996 99.8571 97.732V97.012C99.8571 96.748 99.8571 96.616 99.8571 96.616C99.8571 96.616 99.7251 96.616 99.4611 96.616H94.8771C94.3891 96.616 93.9691 96.444 93.6171 96.1C93.2731 95.748 93.1011 95.328 93.1011 94.84V93.136C93.1011 92.648 93.2731 92.232 93.6171 91.888C93.9691 91.536 94.3891 91.36 94.8771 91.36H99.9651C100.445 91.36 100.861 91.536 101.213 91.888C101.565 92.232 101.741 92.648 101.741 93.136V93.94H99.8571V93.628C99.8571 93.364 99.8571 93.232 99.8571 93.232C99.8571 93.232 99.7251 93.232 99.4611 93.232H95.3571C95.0931 93.232 94.9611 93.232 94.9611 93.232C94.9611 93.232 94.9611 93.364 94.9611 93.628V94.348C94.9611 94.612 94.9611 94.744 94.9611 94.744C94.9611 94.744 95.0931 94.744 95.3571 94.744H99.9651C100.445 94.744 100.861 94.92 101.213 95.272C101.565 95.616 101.741 96.032 101.741 96.52V98.224C101.741 98.712 101.565 99.132 101.213 99.484C100.861 99.828 100.445 100 99.9651 100H94.8771ZM103.063 100V91.36H104.983L107.911 94.852L110.827 91.36H112.759V100H110.887V94.204L107.911 97.756L104.923 94.216V100H103.063Z" fill="white"/>
<path d="M267.53 151V142.36H275.51V144.232H269.414V145.744H274.322V147.616H269.414V149.128H275.51V151H267.53ZM276.717 151V144.136C276.717 143.648 276.889 143.232 277.233 142.888C277.585 142.536 278.005 142.36 278.493 142.36H283.569C284.057 142.36 284.477 142.536 284.829 142.888C285.181 143.232 285.357 143.648 285.357 144.136V151H283.473V148.216H278.577V151H276.717ZM278.577 146.344H283.473V144.628C283.473 144.364 283.473 144.232 283.473 144.232C283.473 144.232 283.341 144.232 283.077 144.232H278.973C278.709 144.232 278.577 144.232 278.577 144.232C278.577 144.232 278.577 144.364 278.577 144.628V146.344ZM286.713 151V142.372H293.565C294.053 142.372 294.473 142.548 294.825 142.9C295.177 143.252 295.353 143.668 295.353 144.148V146.38C295.353 146.86 295.177 147.276 294.825 147.628C294.473 147.98 294.053 148.156 293.565 148.156H293.481L295.353 150.364V151H293.433L291.045 148.156L288.573 148.168V151H286.713ZM288.969 146.284H293.073C293.337 146.284 293.469 146.284 293.469 146.284C293.469 146.284 293.469 146.152 293.469 145.888V144.628C293.469 144.364 293.469 144.232 293.469 144.232C293.469 144.232 293.337 144.232 293.073 144.232H288.969C288.705 144.232 288.573 144.232 288.573 144.232C288.573 144.232 288.573 144.364 288.573 144.628V145.888C288.573 146.152 288.573 146.284 288.573 146.284C288.573 146.284 288.705 146.284 288.969 146.284ZM296.627 151V142.36H298.547L303.383 148.12V142.36H305.267V151H303.347L298.487 145.216V151H296.627ZM312.243 151C311.763 151 311.351 150.808 311.007 150.424C310.663 150.04 310.491 149.612 310.491 149.14V144.148C310.491 143.668 310.663 143.252 311.007 142.9C311.351 142.54 311.763 142.36 312.243 142.36H317.223C317.703 142.36 318.115 142.54 318.459 142.9C318.803 143.252 318.975 143.668 318.975 144.148V149.14C318.975 149.612 318.803 150.04 318.459 150.424C318.115 150.808 317.703 151 317.223 151H312.243ZM313.311 149.044H316.743C317.007 149.044 317.139 149.044 317.139 149.044C317.139 149.044 317.139 148.912 317.139 148.648V145.828L313.311 149.044ZM312.327 147.46L316.155 144.244H312.723C312.459 144.244 312.327 144.244 312.327 144.244C312.327 144.244 312.327 144.376 312.327 144.64V147.46ZM320.462 151V149.164H322.298V151H320.462ZM325.051 151C324.571 151 324.159 150.828 323.815 150.484C323.471 150.14 323.299 149.732 323.299 149.26V148.588H325.135V148.768C325.135 149.032 325.135 149.164 325.135 149.164C325.135 149.164 325.267 149.164 325.531 149.164H329.551C329.815 149.164 329.947 149.164 329.947 149.164C329.947 149.164 329.947 149.032 329.947 148.768V147.94C329.947 147.676 329.947 147.544 329.947 147.544C329.947 147.544 329.815 147.544 329.551 147.544H323.299V142.36H331.783V144.196H325.531C325.267 144.196 325.135 144.196 325.135 144.196C325.135 144.196 325.135 144.328 325.135 144.592V145.3C325.135 145.564 325.135 145.696 325.135 145.696C325.135 145.696 325.267 145.696 325.531 145.696H330.031C330.511 145.696 330.923 145.868 331.267 146.212C331.611 146.548 331.783 146.956 331.783 147.436V149.26C331.783 149.732 331.611 150.14 331.267 150.484C330.923 150.828 330.511 151 330.031 151H325.051ZM334.184 151V149.116L342.056 142.372H342.668V144.244L334.796 151H334.184ZM334.784 146.572C334.304 146.572 333.912 146.42 333.608 146.116C333.304 145.812 333.152 145.42 333.152 144.94V144.076C333.152 143.596 333.304 143.208 333.608 142.912C333.912 142.608 334.304 142.456 334.784 142.456H335.756C336.236 142.456 336.628 142.608 336.932 142.912C337.236 143.208 337.388 143.596 337.388 144.076V144.94C337.388 145.42 337.236 145.812 336.932 146.116C336.628 146.42 336.236 146.572 335.756 146.572H334.784ZM335.048 145.06H335.48C335.592 145.06 335.684 145.024 335.756 144.952C335.836 144.872 335.876 144.776 335.876 144.664V144.352C335.876 144.24 335.836 144.148 335.756 144.076C335.684 143.996 335.592 143.956 335.48 143.956H335.048C334.936 143.956 334.84 143.996 334.76 144.076C334.688 144.148 334.652 144.24 334.652 144.352V144.664C334.652 144.776 334.688 144.872 334.76 144.952C334.84 145.024 334.936 145.06 335.048 145.06ZM340.88 150.892C340.408 150.892 340.02 150.74 339.716 150.436C339.412 150.132 339.26 149.74 339.26 149.26V148.396C339.26 147.916 339.412 147.528 339.716 147.232C340.02 146.928 340.408 146.776 340.88 146.776H341.852C342.332 146.776 342.724 146.928 343.028 147.232C343.332 147.528 343.484 147.916 343.484 148.396V149.26C343.484 149.74 343.332 150.132 343.028 150.436C342.724 150.74 342.332 150.892 341.852 150.892H340.88ZM341.156 149.392H341.588C341.7 149.392 341.792 149.356 341.864 149.284C341.944 149.204 341.984 149.108 341.984 148.996V148.672C341.984 148.56 341.944 148.468 341.864 148.396C341.792 148.316 341.7 148.276 341.588 148.276H341.156C341.044 148.276 340.948 148.316 340.868 148.396C340.796 148.468 340.76 148.56 340.76 148.672V148.996C340.76 149.108 340.796 149.204 340.868 149.284C340.948 149.356 341.044 149.392 341.156 149.392ZM256.695 166C256.207 166 255.787 165.828 255.435 165.484C255.091 165.132 254.919 164.712 254.919 164.224V159.136C254.919 158.648 255.091 158.232 255.435 157.888C255.787 157.536 256.207 157.36 256.695 157.36H261.783C262.263 157.36 262.679 157.536 263.031 157.888C263.383 158.232 263.559 158.648 263.559 159.136V164.224C263.559 164.712 263.383 165.132 263.031 165.484C262.679 165.828 262.263 166 261.783 166H256.695ZM257.175 164.128H261.279C261.543 164.128 261.675 164.128 261.675 164.128C261.675 164.128 261.675 163.996 261.675 163.732V159.628C261.675 159.364 261.675 159.232 261.675 159.232C261.675 159.232 261.543 159.232 261.279 159.232H257.175C256.911 159.232 256.779 159.232 256.779 159.232C256.779 159.232 256.779 159.364 256.779 159.628V163.732C256.779 163.996 256.779 164.128 256.779 164.128C256.779 164.128 256.911 164.128 257.175 164.128ZM264.905 166V157.36H272.885V159.232H266.789V160.744H271.697V162.616H266.789V166H264.905ZM280.372 166V159.232H276.988V157.36H285.628V159.232H282.244V166H280.372ZM286.55 166V159.136C286.55 158.648 286.722 158.232 287.066 157.888C287.418 157.536 287.838 157.36 288.326 157.36H293.402C293.89 157.36 294.31 157.536 294.662 157.888C295.014 158.232 295.19 158.648 295.19 159.136V166H293.306V163.216H288.41V166H286.55ZM288.41 161.344H293.306V159.628C293.306 159.364 293.306 159.232 293.306 159.232C293.306 159.232 293.174 159.232 292.91 159.232H288.806C288.542 159.232 288.41 159.232 288.41 159.232C288.41 159.232 288.41 159.364 288.41 159.628V161.344ZM296.569 166V157.36H298.441V160.744H300.133L302.965 157.36H304.909V158.008L301.825 161.68L304.909 165.352V166H302.965L300.133 162.616H298.441V166H296.569ZM306.143 166V157.36H314.123V159.232H308.027V160.744H312.935V162.616H308.027V164.128H314.123V166H306.143ZM319.162 166V157.372H326.014C326.502 157.372 326.922 157.548 327.274 157.9C327.626 158.252 327.802 158.668 327.802 159.148V161.38C327.802 161.86 327.626 162.276 327.274 162.628C326.922 162.98 326.502 163.156 326.014 163.156H325.93L327.802 165.364V166H325.882L323.494 163.156L321.022 163.168V166H319.162ZM321.418 161.284H325.522C325.786 161.284 325.918 161.284 325.918 161.284C325.918 161.284 325.918 161.152 325.918 160.888V159.628C325.918 159.364 325.918 159.232 325.918 159.232C325.918 159.232 325.786 159.232 325.522 159.232H321.418C321.154 159.232 321.022 159.232 321.022 159.232C321.022 159.232 321.022 159.364 321.022 159.628V160.888C321.022 161.152 321.022 161.284 321.022 161.284C321.022 161.284 321.154 161.284 321.418 161.284ZM329.1 166V159.136C329.1 158.648 329.272 158.232 329.616 157.888C329.968 157.536 330.388 157.36 330.876 157.36H335.952C336.44 157.36 336.86 157.536 337.212 157.888C337.564 158.232 337.74 158.648 337.74 159.136V166H335.856V163.216H330.96V166H329.1ZM330.96 161.344H335.856V159.628C335.856 159.364 335.856 159.232 335.856 159.232C335.856 159.232 335.724 159.232 335.46 159.232H331.356C331.092 159.232 330.96 159.232 330.96 159.232C330.96 159.232 330.96 159.364 330.96 159.628V161.344ZM342.06 166V159.232H338.676V157.36H347.316V159.232H343.932V166H342.06ZM348.237 166V157.36H356.217V159.232H350.121V160.744H355.029V162.616H350.121V164.128H356.217V166H348.237ZM263.757 181V172.36H271.737V174.232H265.641V175.744H270.549V177.616H265.641V181H263.757ZM272.392 181V172.372H279.244C279.732 172.372 280.152 172.548 280.504 172.9C280.856 173.252 281.032 173.668 281.032 174.148V176.38C281.032 176.86 280.856 177.276 280.504 177.628C280.152 177.98 279.732 178.156 279.244 178.156H279.16L281.032 180.364V181H279.112L276.724 178.156L274.252 178.168V181H272.392ZM274.648 176.284H278.752C279.016 176.284 279.148 176.284 279.148 176.284C279.148 176.284 279.148 176.152 279.148 175.888V174.628C279.148 174.364 279.148 174.232 279.148 174.232C279.148 174.232 279.016 174.232 278.752 174.232H274.648C274.384 174.232 274.252 174.232 274.252 174.232C274.252 174.232 274.252 174.364 274.252 174.628V175.888C274.252 176.152 274.252 176.284 274.252 176.284C274.252 176.284 274.384 176.284 274.648 176.284ZM284.059 181C283.571 181 283.151 180.828 282.799 180.484C282.455 180.132 282.283 179.712 282.283 179.224V174.136C282.283 173.648 282.455 173.232 282.799 172.888C283.151 172.536 283.571 172.36 284.059 172.36H289.147C289.627 172.36 290.043 172.536 290.395 172.888C290.747 173.232 290.923 173.648 290.923 174.136V179.224C290.923 179.712 290.747 180.132 290.395 180.484C290.043 180.828 289.627 181 289.147 181H284.059ZM284.539 179.128H288.643C288.907 179.128 289.039 179.128 289.039 179.128C289.039 179.128 289.039 178.996 289.039 178.732V174.628C289.039 174.364 289.039 174.232 289.039 174.232C289.039 174.232 288.907 174.232 288.643 174.232H284.539C284.275 174.232 284.143 174.232 284.143 174.232C284.143 174.232 284.143 174.364 284.143 174.628V178.732C284.143 178.996 284.143 179.128 284.143 179.128C284.143 179.128 284.275 179.128 284.539 179.128ZM292.244 181V172.36H294.164L297.092 175.852L300.008 172.36H301.94V181H300.068V175.204L297.092 178.756L294.104 175.216V181H292.244ZM308.996 181C308.508 181 308.088 180.828 307.736 180.484C307.392 180.132 307.22 179.712 307.22 179.224V178.42H309.08V178.732C309.08 178.996 309.08 179.128 309.08 179.128C309.08 179.128 309.212 179.128 309.476 179.128H313.58C313.844 179.128 313.976 179.128 313.976 179.128C313.976 179.128 313.976 178.996 313.976 178.732V178.012C313.976 177.748 313.976 177.616 313.976 177.616C313.976 177.616 313.844 177.616 313.58 177.616H308.996C308.508 177.616 308.088 177.444 307.736 177.1C307.392 176.748 307.22 176.328 307.22 175.84V174.136C307.22 173.648 307.392 173.232 307.736 172.888C308.088 172.536 308.508 172.36 308.996 172.36H314.084C314.564 172.36 314.98 172.536 315.332 172.888C315.684 173.232 315.86 173.648 315.86 174.136V174.94H313.976V174.628C313.976 174.364 313.976 174.232 313.976 174.232C313.976 174.232 313.844 174.232 313.58 174.232H309.476C309.212 174.232 309.08 174.232 309.08 174.232C309.08 174.232 309.08 174.364 309.08 174.628V175.348C309.08 175.612 309.08 175.744 309.08 175.744C309.08 175.744 309.212 175.744 309.476 175.744H314.084C314.564 175.744 314.98 175.92 315.332 176.272C315.684 176.616 315.86 177.032 315.86 177.52V179.224C315.86 179.712 315.684 180.132 315.332 180.484C314.98 180.828 314.564 181 314.084 181H308.996ZM318.958 181C318.47 181 318.05 180.828 317.698 180.484C317.354 180.132 317.182 179.712 317.182 179.224V174.136C317.182 173.648 317.354 173.232 317.698 172.888C318.05 172.536 318.47 172.36 318.958 172.36H324.034C324.522 172.36 324.942 172.536 325.294 172.888C325.646 173.232 325.822 173.648 325.822 174.136V174.952H323.938V174.628C323.938 174.364 323.938 174.232 323.938 174.232C323.938 174.232 323.806 174.232 323.542 174.232H319.438C319.174 174.232 319.042 174.232 319.042 174.232C319.042 174.232 319.042 174.364 319.042 174.628V178.732C319.042 178.996 319.042 179.128 319.042 179.128C319.042 179.128 319.174 179.128 319.438 179.128H323.542C323.806 179.128 323.938 179.128 323.938 179.128C323.938 179.128 323.938 178.996 323.938 178.732V177.832H322.066V175.96H325.822V179.224C325.822 179.712 325.646 180.132 325.294 180.484C324.942 180.828 324.522 181 324.034 181H318.958ZM327.167 181V172.36H335.147V174.232H329.051V175.744H333.959V177.616H329.051V181H327.167ZM335.791 175.816V172.528H337.627V174.028C337.627 174.46 337.451 174.844 337.099 175.18C336.747 175.516 336.311 175.728 335.791 175.816ZM340.426 181C339.938 181 339.518 180.828 339.166 180.484C338.822 180.132 338.65 179.712 338.65 179.224V178.42H340.51V178.732C340.51 178.996 340.51 179.128 340.51 179.128C340.51 179.128 340.642 179.128 340.906 179.128H345.01C345.274 179.128 345.406 179.128 345.406 179.128C345.406 179.128 345.406 178.996 345.406 178.732V178.012C345.406 177.748 345.406 177.616 345.406 177.616C345.406 177.616 345.274 177.616 345.01 177.616H340.426C339.938 177.616 339.518 177.444 339.166 177.1C338.822 176.748 338.65 176.328 338.65 175.84V174.136C338.65 173.648 338.822 173.232 339.166 172.888C339.518 172.536 339.938 172.36 340.426 172.36H345.514C345.994 172.36 346.41 172.536 346.762 172.888C347.114 173.232 347.29 173.648 347.29 174.136V174.94H345.406V174.628C345.406 174.364 345.406 174.232 345.406 174.232C345.406 174.232 345.274 174.232 345.01 174.232H340.906C340.642 174.232 340.51 174.232 340.51 174.232C340.51 174.232 340.51 174.364 340.51 174.628V175.348C340.51 175.612 340.51 175.744 340.51 175.744C340.51 175.744 340.642 175.744 340.906 175.744H345.514C345.994 175.744 346.41 175.92 346.762 176.272C347.114 176.616 347.29 177.032 347.29 177.52V179.224C347.29 179.712 347.114 180.132 346.762 180.484C346.41 180.828 345.994 181 345.514 181H340.426ZM248.997 196V187.36H256.977V189.232H250.881V190.744H255.789V192.616H250.881V196H248.997ZM257.657 196V187.348H259.517V194.128H266.297V196H257.657ZM267.02 196V189.136C267.02 188.648 267.192 188.232 267.536 187.888C267.888 187.536 268.308 187.36 268.796 187.36H273.872C274.36 187.36 274.78 187.536 275.132 187.888C275.484 188.232 275.66 188.648 275.66 189.136V196H273.776V193.216H268.88V196H267.02ZM268.88 191.344H273.776V189.628C273.776 189.364 273.776 189.232 273.776 189.232C273.776 189.232 273.644 189.232 273.38 189.232H269.276C269.012 189.232 268.88 189.232 268.88 189.232C268.88 189.232 268.88 189.364 268.88 189.628V191.344ZM278.803 196C278.315 196 277.895 195.828 277.543 195.484C277.199 195.132 277.027 194.712 277.027 194.224V189.136C277.027 188.648 277.199 188.232 277.543 187.888C277.895 187.536 278.315 187.36 278.803 187.36H283.879C284.367 187.36 284.787 187.536 285.139 187.888C285.491 188.232 285.667 188.648 285.667 189.136V189.952H283.783V189.628C283.783 189.364 283.783 189.232 283.783 189.232C283.783 189.232 283.651 189.232 283.387 189.232H279.283C279.019 189.232 278.887 189.232 278.887 189.232C278.887 189.232 278.887 189.364 278.887 189.628V193.732C278.887 193.996 278.887 194.128 278.887 194.128C278.887 194.128 279.019 194.128 279.283 194.128H283.387C283.651 194.128 283.783 194.128 283.783 194.128C283.783 194.128 283.783 193.996 283.783 193.732V192.832H281.911V190.96H285.667V194.224C285.667 194.712 285.491 195.132 285.139 195.484C284.787 195.828 284.367 196 283.879 196H278.803ZM288.74 196C288.252 196 287.832 195.828 287.48 195.484C287.136 195.132 286.964 194.712 286.964 194.224V193.42H288.824V193.732C288.824 193.996 288.824 194.128 288.824 194.128C288.824 194.128 288.956 194.128 289.22 194.128H293.324C293.588 194.128 293.72 194.128 293.72 194.128C293.72 194.128 293.72 193.996 293.72 193.732V193.012C293.72 192.748 293.72 192.616 293.72 192.616C293.72 192.616 293.588 192.616 293.324 192.616H288.74C288.252 192.616 287.832 192.444 287.48 192.1C287.136 191.748 286.964 191.328 286.964 190.84V189.136C286.964 188.648 287.136 188.232 287.48 187.888C287.832 187.536 288.252 187.36 288.74 187.36H293.828C294.308 187.36 294.724 187.536 295.076 187.888C295.428 188.232 295.604 188.648 295.604 189.136V189.94H293.72V189.628C293.72 189.364 293.72 189.232 293.72 189.232C293.72 189.232 293.588 189.232 293.324 189.232H289.22C288.956 189.232 288.824 189.232 288.824 189.232C288.824 189.232 288.824 189.364 288.824 189.628V190.348C288.824 190.612 288.824 190.744 288.824 190.744C288.824 190.744 288.956 190.744 289.22 190.744H293.828C294.308 190.744 294.724 190.92 295.076 191.272C295.428 191.616 295.604 192.032 295.604 192.52V194.224C295.604 194.712 295.428 195.132 295.076 195.484C294.724 195.828 294.308 196 293.828 196H288.74ZM296.938 196V187.36H298.798V190.744H303.898V187.36H305.758V196H303.898V192.616H298.798V196H296.938ZM307.085 196V187.36H308.921V196H307.085ZM309.699 196V187.372H316.551C317.039 187.372 317.459 187.548 317.811 187.9C318.163 188.252 318.339 188.668 318.339 189.148V191.38C318.339 191.86 318.163 192.276 317.811 192.628C317.459 192.98 317.039 193.156 316.551 193.156L311.559 193.168V196H309.699ZM311.955 191.284H316.059C316.323 191.284 316.455 191.284 316.455 191.284C316.455 191.284 316.455 191.152 316.455 190.888V189.628C316.455 189.364 316.455 189.232 316.455 189.232C316.455 189.232 316.323 189.232 316.059 189.232H311.955C311.691 189.232 311.559 189.232 311.559 189.232C311.559 189.232 311.559 189.364 311.559 189.628V190.888C311.559 191.152 311.559 191.284 311.559 191.284C311.559 191.284 311.691 191.284 311.955 191.284ZM324.835 196C324.347 196 323.927 195.828 323.575 195.484C323.231 195.132 323.059 194.712 323.059 194.224V189.136C323.059 188.648 323.231 188.232 323.575 187.888C323.927 187.536 324.347 187.36 324.835 187.36H329.911C330.399 187.36 330.819 187.536 331.171 187.888C331.523 188.232 331.699 188.648 331.699 189.136V189.952H329.815V189.628C329.815 189.364 329.815 189.232 329.815 189.232C329.815 189.232 329.683 189.232 329.419 189.232H325.315C325.051 189.232 324.919 189.232 324.919 189.232C324.919 189.232 324.919 189.364 324.919 189.628V193.732C324.919 193.996 324.919 194.128 324.919 194.128C324.919 194.128 325.051 194.128 325.315 194.128H329.419C329.683 194.128 329.815 194.128 329.815 194.128C329.815 194.128 329.815 193.996 329.815 193.732V192.832H327.943V190.96H331.699V194.224C331.699 194.712 331.523 195.132 331.171 195.484C330.819 195.828 330.399 196 329.911 196H324.835ZM333.044 196V189.136C333.044 188.648 333.216 188.232 333.56 187.888C333.912 187.536 334.332 187.36 334.82 187.36H339.896C340.384 187.36 340.804 187.536 341.156 187.888C341.508 188.232 341.684 188.648 341.684 189.136V196H339.8V193.216H334.904V196H333.044ZM334.904 191.344H339.8V189.628C339.8 189.364 339.8 189.232 339.8 189.232C339.8 189.232 339.668 189.232 339.404 189.232H335.3C335.036 189.232 334.904 189.232 334.904 189.232C334.904 189.232 334.904 189.364 334.904 189.628V191.344ZM343.051 196V187.36H344.971L347.899 190.852L350.815 187.36H352.747V196H350.875V190.204L347.899 193.756L344.911 190.216V196H343.051ZM354.208 196V187.36H362.188V189.232H356.092V190.744H361V192.616H356.092V194.128H362.188V196H354.208Z" fill="white"/>
<path d="M130.143 191V182.36H138.123V184.232H132.027V185.744H136.935V187.616H132.027V189.128H138.123V191H130.143ZM139.331 191V184.136C139.331 183.648 139.503 183.232 139.847 182.888C140.199 182.536 140.619 182.36 141.107 182.36H146.183C146.671 182.36 147.091 182.536 147.443 182.888C147.795 183.232 147.971 183.648 147.971 184.136V191H146.087V188.216H141.191V191H139.331ZM141.191 186.344H146.087V184.628C146.087 184.364 146.087 184.232 146.087 184.232C146.087 184.232 145.955 184.232 145.691 184.232H141.587C141.323 184.232 141.191 184.232 141.191 184.232C141.191 184.232 141.191 184.364 141.191 184.628V186.344ZM149.326 191V182.372H156.178C156.666 182.372 157.086 182.548 157.438 182.9C157.79 183.252 157.966 183.668 157.966 184.148V186.38C157.966 186.86 157.79 187.276 157.438 187.628C157.086 187.98 156.666 188.156 156.178 188.156H156.094L157.966 190.364V191H156.046L153.658 188.156L151.186 188.168V191H149.326ZM151.582 186.284H155.686C155.95 186.284 156.082 186.284 156.082 186.284C156.082 186.284 156.082 186.152 156.082 185.888V184.628C156.082 184.364 156.082 184.232 156.082 184.232C156.082 184.232 155.95 184.232 155.686 184.232H151.582C151.318 184.232 151.186 184.232 151.186 184.232C151.186 184.232 151.186 184.364 151.186 184.628V185.888C151.186 186.152 151.186 186.284 151.186 186.284C151.186 186.284 151.318 186.284 151.582 186.284ZM159.24 191V182.36H161.16L165.996 188.12V182.36H167.88V191H165.96L161.1 185.216V191H159.24ZM108.052 206V197.36H109.888V206H108.052ZM110.666 206V197.36H112.586L117.422 203.12V197.36H119.306V206H117.386L112.526 200.216V206H110.666ZM120.675 206V197.36H127.527C128.015 197.36 128.435 197.536 128.787 197.888C129.139 198.232 129.315 198.648 129.315 199.136V204.224C129.315 204.712 129.139 205.132 128.787 205.484C128.435 205.828 128.015 206 127.527 206H120.675ZM122.931 204.128H127.035C127.299 204.128 127.431 204.128 127.431 204.128C127.431 204.128 127.431 203.996 127.431 203.732V199.628C127.431 199.364 127.431 199.232 127.431 199.232C127.431 199.232 127.299 199.232 127.035 199.232H122.931C122.667 199.232 122.535 199.232 122.535 199.232C122.535 199.232 122.535 199.364 122.535 199.628V203.732C122.535 203.996 122.535 204.128 122.535 204.128C122.535 204.128 122.667 204.128 122.931 204.128ZM130.682 206V197.36H138.662V199.232H132.566V200.744H137.474V202.616H132.566V204.128H138.662V206H130.682ZM139.834 206V197.372H146.686C147.174 197.372 147.594 197.548 147.946 197.9C148.298 198.252 148.474 198.668 148.474 199.148V201.38C148.474 201.86 148.298 202.276 147.946 202.628C147.594 202.98 147.174 203.156 146.686 203.156H146.602L148.474 205.364V206H146.554L144.166 203.156L141.694 203.168V206H139.834ZM142.09 201.284H146.194C146.458 201.284 146.59 201.284 146.59 201.284C146.59 201.284 146.59 201.152 146.59 200.888V199.628C146.59 199.364 146.59 199.232 146.59 199.232C146.59 199.232 146.458 199.232 146.194 199.232H142.09C141.826 199.232 141.694 199.232 141.694 199.232C141.694 199.232 141.694 199.364 141.694 199.628V200.888C141.694 201.152 141.694 201.284 141.694 201.284C141.694 201.284 141.826 201.284 142.09 201.284ZM149.7 206V197.36H151.536V206H149.7ZM154.091 206C153.603 206 153.183 205.828 152.831 205.484C152.487 205.132 152.315 204.712 152.315 204.224V199.136C152.315 198.648 152.487 198.232 152.831 197.888C153.183 197.536 153.603 197.36 154.091 197.36H160.931V199.232H154.571C154.307 199.232 154.175 199.232 154.175 199.232C154.175 199.232 154.175 199.364 154.175 199.628V203.732C154.175 203.996 154.175 204.128 154.175 204.128C154.175 204.128 154.307 204.128 154.571 204.128H160.931V206H154.091ZM165.134 206V199.232H161.75V197.36H170.39V199.232H167.006V206H165.134ZM171.299 206V197.348H173.159V204.128H179.939V206H171.299ZM182.186 206V202.772L178.19 197.36H180.41L183.122 200.768L185.822 197.36H188.066L184.058 202.784V206H182.186ZM188.302 207.596V204.296H190.138V205.808C190.138 206.24 189.962 206.624 189.61 206.96C189.258 207.296 188.822 207.508 188.302 207.596ZM107.491 221V212.36H114.343C114.831 212.36 115.251 212.536 115.603 212.888C115.955 213.232 116.131 213.648 116.131 214.136V219.224C116.131 219.712 115.955 220.132 115.603 220.484C115.251 220.828 114.831 221 114.343 221H107.491ZM109.747 219.128H113.851C114.115 219.128 114.247 219.128 114.247 219.128C114.247 219.128 114.247 218.996 114.247 218.732V214.628C114.247 214.364 114.247 214.232 114.247 214.232C114.247 214.232 114.115 214.232 113.851 214.232H109.747C109.483 214.232 109.351 214.232 109.351 214.232C109.351 214.232 109.351 214.364 109.351 214.628V218.732C109.351 218.996 109.351 219.128 109.351 219.128C109.351 219.128 109.483 219.128 109.747 219.128ZM119.227 221C118.739 221 118.319 220.828 117.967 220.484C117.623 220.132 117.451 219.712 117.451 219.224V212.36H119.311V218.732C119.311 218.996 119.311 219.128 119.311 219.128C119.311 219.128 119.443 219.128 119.707 219.128H123.811C124.075 219.128 124.207 219.128 124.207 219.128C124.207 219.128 124.207 218.996 124.207 218.732V212.36H126.091V219.224C126.091 219.712 125.915 220.132 125.563 220.484C125.211 220.828 124.795 221 124.315 221H119.227ZM127.436 221V212.36H135.416V214.232H129.32V215.744H134.228V217.616H129.32V219.128H135.416V221H127.436ZM143.419 221V214.232H140.035V212.36H148.675V214.232H145.291V221H143.419ZM151.324 221C150.836 221 150.416 220.828 150.064 220.484C149.72 220.132 149.548 219.712 149.548 219.224V214.136C149.548 213.648 149.72 213.232 150.064 212.888C150.416 212.536 150.836 212.36 151.324 212.36H156.412C156.892 212.36 157.308 212.536 157.66 212.888C158.012 213.232 158.188 213.648 158.188 214.136V219.224C158.188 219.712 158.012 220.132 157.66 220.484C157.308 220.828 156.892 221 156.412 221H151.324ZM151.804 219.128H155.908C156.172 219.128 156.304 219.128 156.304 219.128C156.304 219.128 156.304 218.996 156.304 218.732V214.628C156.304 214.364 156.304 214.232 156.304 214.232C156.304 214.232 156.172 214.232 155.908 214.232H151.804C151.54 214.232 151.408 214.232 151.408 214.232C151.408 214.232 151.408 214.364 151.408 214.628V218.732C151.408 218.996 151.408 219.128 151.408 219.128C151.408 219.128 151.54 219.128 151.804 219.128ZM166.329 221V214.232H162.945V212.36H171.585V214.232H168.201V221H166.329ZM172.495 221V212.36H174.355V215.744H179.455V212.36H181.315V221H179.455V217.616H174.355V221H172.495ZM182.714 221V212.36H190.694V214.232H184.598V215.744H189.506V217.616H184.598V219.128H190.694V221H182.714ZM105.827 236V227.36H113.807V229.232H107.711V230.744H112.619V232.616H107.711V234.128H113.807V236H105.827ZM116.766 236C116.278 236 115.858 235.828 115.506 235.484C115.162 235.132 114.99 234.712 114.99 234.224V229.136C114.99 228.648 115.162 228.232 115.506 227.888C115.858 227.536 116.278 227.36 116.766 227.36H123.606V229.232H117.246C116.982 229.232 116.85 229.232 116.85 229.232C116.85 229.232 116.85 229.364 116.85 229.628V233.732C116.85 233.996 116.85 234.128 116.85 234.128C116.85 234.128 116.982 234.128 117.246 234.128H123.606V236H116.766ZM126.61 236C126.122 236 125.702 235.828 125.35 235.484C125.006 235.132 124.834 234.712 124.834 234.224V229.136C124.834 228.648 125.006 228.232 125.35 227.888C125.702 227.536 126.122 227.36 126.61 227.36H131.698C132.178 227.36 132.594 227.536 132.946 227.888C133.298 228.232 133.474 228.648 133.474 229.136V234.224C133.474 234.712 133.298 235.132 132.946 235.484C132.594 235.828 132.178 236 131.698 236H126.61ZM127.09 234.128H131.194C131.458 234.128 131.59 234.128 131.59 234.128C131.59 234.128 131.59 233.996 131.59 233.732V229.628C131.59 229.364 131.59 229.232 131.59 229.232C131.59 229.232 131.458 229.232 131.194 229.232H127.09C126.826 229.232 126.694 229.232 126.694 229.232C126.694 229.232 126.694 229.364 126.694 229.628V233.732C126.694 233.996 126.694 234.128 126.694 234.128C126.694 234.128 126.826 234.128 127.09 234.128ZM136.547 236C136.059 236 135.639 235.828 135.287 235.484C134.943 235.132 134.771 234.712 134.771 234.224V233.42H136.631V233.732C136.631 233.996 136.631 234.128 136.631 234.128C136.631 234.128 136.763 234.128 137.027 234.128H141.131C141.395 234.128 141.527 234.128 141.527 234.128C141.527 234.128 141.527 233.996 141.527 233.732V233.012C141.527 232.748 141.527 232.616 141.527 232.616C141.527 232.616 141.395 232.616 141.131 232.616H136.547C136.059 232.616 135.639 232.444 135.287 232.1C134.943 231.748 134.771 231.328 134.771 230.84V229.136C134.771 228.648 134.943 228.232 135.287 227.888C135.639 227.536 136.059 227.36 136.547 227.36H141.635C142.115 227.36 142.531 227.536 142.883 227.888C143.235 228.232 143.411 228.648 143.411 229.136V229.94H141.527V229.628C141.527 229.364 141.527 229.232 141.527 229.232C141.527 229.232 141.395 229.232 141.131 229.232H137.027C136.763 229.232 136.631 229.232 136.631 229.232C136.631 229.232 136.631 229.364 136.631 229.628V230.348C136.631 230.612 136.631 230.744 136.631 230.744C136.631 230.744 136.763 230.744 137.027 230.744H141.635C142.115 230.744 142.531 230.92 142.883 231.272C143.235 231.616 143.411 232.032 143.411 232.52V234.224C143.411 234.712 143.235 235.132 142.883 235.484C142.531 235.828 142.115 236 141.635 236H136.547ZM148.261 236V232.772L144.265 227.36H146.485L149.197 230.768L151.897 227.36H154.141L150.133 232.784V236H148.261ZM156.153 236C155.665 236 155.245 235.828 154.893 235.484C154.549 235.132 154.377 234.712 154.377 234.224V233.42H156.237V233.732C156.237 233.996 156.237 234.128 156.237 234.128C156.237 234.128 156.369 234.128 156.633 234.128H160.737C161.001 234.128 161.133 234.128 161.133 234.128C161.133 234.128 161.133 233.996 161.133 233.732V233.012C161.133 232.748 161.133 232.616 161.133 232.616C161.133 232.616 161.001 232.616 160.737 232.616H156.153C155.665 232.616 155.245 232.444 154.893 232.1C154.549 231.748 154.377 231.328 154.377 230.84V229.136C154.377 228.648 154.549 228.232 154.893 227.888C155.245 227.536 155.665 227.36 156.153 227.36H161.241C161.721 227.36 162.137 227.536 162.489 227.888C162.841 228.232 163.017 228.648 163.017 229.136V229.94H161.133V229.628C161.133 229.364 161.133 229.232 161.133 229.232C161.133 229.232 161.001 229.232 160.737 229.232H156.633C156.369 229.232 156.237 229.232 156.237 229.232C156.237 229.232 156.237 229.364 156.237 229.628V230.348C156.237 230.612 156.237 230.744 156.237 230.744C156.237 230.744 156.369 230.744 156.633 230.744H161.241C161.721 230.744 162.137 230.92 162.489 231.272C162.841 231.616 163.017 232.032 163.017 232.52V234.224C163.017 234.712 162.841 235.132 162.489 235.484C162.137 235.828 161.721 236 161.241 236H156.153ZM167.29 236V229.232H163.906V227.36H172.546V229.232H169.162V236H167.29ZM173.467 236V227.36H181.447V229.232H175.351V230.744H180.259V232.616H175.351V234.128H181.447V236H173.467ZM182.408 236V227.36H184.328L187.256 230.852L190.172 227.36H192.104V236H190.232V230.204L187.256 233.756L184.268 230.216V236H182.408ZM130.395 251V242.36H138.375V244.232H132.279V245.744H137.187V247.616H132.279V251H130.395ZM140.795 251C140.307 251 139.887 250.828 139.535 250.484C139.191 250.132 139.019 249.712 139.019 249.224V242.36H140.879V248.732C140.879 248.996 140.879 249.128 140.879 249.128C140.879 249.128 141.011 249.128 141.275 249.128H145.379C145.643 249.128 145.775 249.128 145.775 249.128C145.775 249.128 145.775 248.996 145.775 248.732V242.36H147.659V249.224C147.659 249.712 147.483 250.132 147.131 250.484C146.779 250.828 146.363 251 145.883 251H140.795ZM148.981 251V242.36H150.901L155.737 248.12V242.36H157.621V251H155.701L150.841 245.216V251H148.981ZM158.989 251V242.36H165.841C166.329 242.36 166.749 242.536 167.101 242.888C167.453 243.232 167.629 243.648 167.629 244.136V249.224C167.629 249.712 167.453 250.132 167.101 250.484C166.749 250.828 166.329 251 165.841 251H158.989ZM161.245 249.128H165.349C165.613 249.128 165.745 249.128 165.745 249.128C165.745 249.128 165.745 248.996 165.745 248.732V244.628C165.745 244.364 165.745 244.232 165.745 244.232C165.745 244.232 165.613 244.232 165.349 244.232H161.245C160.981 244.232 160.849 244.232 160.849 244.232C160.849 244.232 160.849 244.364 160.849 244.628V248.732C160.849 248.996 160.849 249.128 160.849 249.128C160.849 249.128 160.981 249.128 161.245 249.128Z" fill="white"/>
<path d="M189.577 12V3.36H197.557V5.232H191.461V6.744H196.369V8.616H191.461V10.128H197.557V12H189.577ZM198.764 12V5.136C198.764 4.648 198.936 4.232 199.28 3.888C199.632 3.536 200.052 3.36 200.54 3.36H205.616C206.104 3.36 206.524 3.536 206.876 3.888C207.228 4.232 207.404 4.648 207.404 5.136V12H205.52V9.216H200.624V12H198.764ZM200.624 7.344H205.52V5.628C205.52 5.364 205.52 5.232 205.52 5.232C205.52 5.232 205.388 5.232 205.124 5.232H201.02C200.756 5.232 200.624 5.232 200.624 5.232C200.624 5.232 200.624 5.364 200.624 5.628V7.344ZM208.76 12V3.372H215.612C216.1 3.372 216.52 3.548 216.872 3.9C217.224 4.252 217.4 4.668 217.4 5.148V7.38C217.4 7.86 217.224 8.276 216.872 8.628C216.52 8.98 216.1 9.156 215.612 9.156H215.528L217.4 11.364V12H215.48L213.092 9.156L210.62 9.168V12H208.76ZM211.016 7.284H215.12C215.384 7.284 215.516 7.284 215.516 7.284C215.516 7.284 215.516 7.152 215.516 6.888V5.628C215.516 5.364 215.516 5.232 215.516 5.232C215.516 5.232 215.384 5.232 215.12 5.232H211.016C210.752 5.232 210.62 5.232 210.62 5.232C210.62 5.232 210.62 5.364 210.62 5.628V6.888C210.62 7.152 210.62 7.284 210.62 7.284C210.62 7.284 210.752 7.284 211.016 7.284ZM218.674 12V3.36H220.594L225.43 9.12V3.36H227.314V12H225.394L220.534 6.216V12H218.674ZM234.242 12C233.762 12 233.35 11.828 233.006 11.484C232.662 11.14 232.49 10.732 232.49 10.26V9.588H234.326V9.768C234.326 10.032 234.326 10.164 234.326 10.164C234.326 10.164 234.458 10.164 234.722 10.164H238.742C239.006 10.164 239.138 10.164 239.138 10.164C239.138 10.164 239.138 10.032 239.138 9.768V8.964C239.138 8.7 239.138 8.568 239.138 8.568C239.138 8.568 239.006 8.568 238.742 8.568H233.906V6.732H238.418C238.682 6.732 238.814 6.732 238.814 6.732C238.814 6.732 238.814 6.6 238.814 6.336V5.592C238.814 5.328 238.814 5.196 238.814 5.196C238.814 5.196 238.682 5.196 238.418 5.196H234.722C234.458 5.196 234.326 5.196 234.326 5.196C234.326 5.196 234.326 5.328 234.326 5.592V5.868H232.49V5.1C232.49 4.62 232.662 4.212 233.006 3.876C233.35 3.532 233.762 3.36 234.242 3.36H238.91C239.39 3.36 239.798 3.532 240.134 3.876C240.478 4.212 240.65 4.62 240.65 5.1V6.828C240.65 6.916 240.642 7.012 240.626 7.116C240.618 7.212 240.602 7.3 240.578 7.38C240.698 7.524 240.794 7.692 240.866 7.884C240.938 8.068 240.974 8.264 240.974 8.472V10.26C240.974 10.732 240.802 11.14 240.458 11.484C240.122 11.828 239.714 12 239.234 12H234.242ZM242.416 12V10.164H244.252V12H242.416ZM247.004 12C246.524 12 246.112 11.828 245.768 11.484C245.424 11.14 245.252 10.732 245.252 10.26V9.588H247.088V9.768C247.088 10.032 247.088 10.164 247.088 10.164C247.088 10.164 247.22 10.164 247.484 10.164H251.504C251.768 10.164 251.9 10.164 251.9 10.164C251.9 10.164 251.9 10.032 251.9 9.768V8.94C251.9 8.676 251.9 8.544 251.9 8.544C251.9 8.544 251.768 8.544 251.504 8.544H245.252V3.36H253.736V5.196H247.484C247.22 5.196 247.088 5.196 247.088 5.196C247.088 5.196 247.088 5.328 247.088 5.592V6.3C247.088 6.564 247.088 6.696 247.088 6.696C247.088 6.696 247.22 6.696 247.484 6.696H251.984C252.464 6.696 252.876 6.868 253.22 7.212C253.564 7.548 253.736 7.956 253.736 8.436V10.26C253.736 10.732 253.564 11.14 253.22 11.484C252.876 11.828 252.464 12 251.984 12H247.004ZM256.137 12V10.116L264.009 3.372H264.621V5.244L256.749 12H256.137ZM256.737 7.572C256.257 7.572 255.865 7.42 255.561 7.116C255.257 6.812 255.105 6.42 255.105 5.94V5.076C255.105 4.596 255.257 4.208 255.561 3.912C255.865 3.608 256.257 3.456 256.737 3.456H257.709C258.189 3.456 258.581 3.608 258.885 3.912C259.189 4.208 259.341 4.596 259.341 5.076V5.94C259.341 6.42 259.189 6.812 258.885 7.116C258.581 7.42 258.189 7.572 257.709 7.572H256.737ZM257.001 6.06H257.433C257.545 6.06 257.637 6.024 257.709 5.952C257.789 5.872 257.829 5.776 257.829 5.664V5.352C257.829 5.24 257.789 5.148 257.709 5.076C257.637 4.996 257.545 4.956 257.433 4.956H257.001C256.889 4.956 256.793 4.996 256.713 5.076C256.641 5.148 256.605 5.24 256.605 5.352V5.664C256.605 5.776 256.641 5.872 256.713 5.952C256.793 6.024 256.889 6.06 257.001 6.06ZM262.833 11.892C262.361 11.892 261.973 11.74 261.669 11.436C261.365 11.132 261.213 10.74 261.213 10.26V9.396C261.213 8.916 261.365 8.528 261.669 8.232C261.973 7.928 262.361 7.776 262.833 7.776H263.805C264.285 7.776 264.677 7.928 264.981 8.232C265.285 8.528 265.437 8.916 265.437 9.396V10.26C265.437 10.74 265.285 11.132 264.981 11.436C264.677 11.74 264.285 11.892 263.805 11.892H262.833ZM263.109 10.392H263.541C263.653 10.392 263.745 10.356 263.817 10.284C263.897 10.204 263.937 10.108 263.937 9.996V9.672C263.937 9.56 263.897 9.468 263.817 9.396C263.745 9.316 263.653 9.276 263.541 9.276H263.109C262.997 9.276 262.901 9.316 262.821 9.396C262.749 9.468 262.713 9.56 262.713 9.672V9.996C262.713 10.108 262.749 10.204 262.821 10.284C262.901 10.356 262.997 10.392 263.109 10.392ZM188.316 27V18.372H195.168C195.656 18.372 196.076 18.548 196.428 18.9C196.78 19.252 196.956 19.668 196.956 20.148V22.38C196.956 22.86 196.78 23.276 196.428 23.628C196.076 23.98 195.656 24.156 195.168 24.156H195.084L196.956 26.364V27H195.036L192.648 24.156L190.176 24.168V27H188.316ZM190.572 22.284H194.676C194.94 22.284 195.072 22.284 195.072 22.284C195.072 22.284 195.072 22.152 195.072 21.888V20.628C195.072 20.364 195.072 20.232 195.072 20.232C195.072 20.232 194.94 20.232 194.676 20.232H190.572C190.308 20.232 190.176 20.232 190.176 20.232C190.176 20.232 190.176 20.364 190.176 20.628V21.888C190.176 22.152 190.176 22.284 190.176 22.284C190.176 22.284 190.308 22.284 190.572 22.284ZM199.983 27C199.495 27 199.075 26.828 198.723 26.484C198.379 26.132 198.207 25.712 198.207 25.224V20.136C198.207 19.648 198.379 19.232 198.723 18.888C199.075 18.536 199.495 18.36 199.983 18.36H205.071C205.551 18.36 205.967 18.536 206.319 18.888C206.671 19.232 206.847 19.648 206.847 20.136V25.224C206.847 25.712 206.671 26.132 206.319 26.484C205.967 26.828 205.551 27 205.071 27H199.983ZM200.463 25.128H204.567C204.831 25.128 204.963 25.128 204.963 25.128C204.963 25.128 204.963 24.996 204.963 24.732V20.628C204.963 20.364 204.963 20.232 204.963 20.232C204.963 20.232 204.831 20.232 204.567 20.232H200.463C200.199 20.232 200.067 20.232 200.067 20.232C200.067 20.232 200.067 20.364 200.067 20.628V24.732C200.067 24.996 200.067 25.128 200.067 25.128C200.067 25.128 200.199 25.128 200.463 25.128ZM211.696 27V23.772L207.7 18.36H209.92L212.632 21.768L215.332 18.36H217.576L213.568 23.784V27H211.696ZM217.86 27V20.136C217.86 19.648 218.032 19.232 218.376 18.888C218.728 18.536 219.148 18.36 219.636 18.36H224.712C225.2 18.36 225.62 18.536 225.972 18.888C226.324 19.232 226.5 19.648 226.5 20.136V27H224.616V24.216H219.72V27H217.86ZM219.72 22.344H224.616V20.628C224.616 20.364 224.616 20.232 224.616 20.232C224.616 20.232 224.484 20.232 224.22 20.232H220.116C219.852 20.232 219.72 20.232 219.72 20.232C219.72 20.232 219.72 20.364 219.72 20.628V22.344ZM227.879 27V18.348H229.739V25.128H236.519V27H227.879ZM240.171 27V20.232H236.787V18.36H245.427V20.232H242.043V27H240.171ZM246.276 27V18.36H248.112V27H246.276ZM248.915 27V18.36H256.895V20.232H250.799V21.744H255.707V23.616H250.799V25.128H256.895V27H248.915ZM259.83 27C259.342 27 258.922 26.828 258.57 26.484C258.226 26.132 258.054 25.712 258.054 25.224V24.42H259.914V24.732C259.914 24.996 259.914 25.128 259.914 25.128C259.914 25.128 260.046 25.128 260.31 25.128H264.414C264.678 25.128 264.81 25.128 264.81 25.128C264.81 25.128 264.81 24.996 264.81 24.732V24.012C264.81 23.748 264.81 23.616 264.81 23.616C264.81 23.616 264.678 23.616 264.414 23.616H259.83C259.342 23.616 258.922 23.444 258.57 23.1C258.226 22.748 258.054 22.328 258.054 21.84V20.136C258.054 19.648 258.226 19.232 258.57 18.888C258.922 18.536 259.342 18.36 259.83 18.36H264.918C265.398 18.36 265.814 18.536 266.166 18.888C266.518 19.232 266.694 19.648 266.694 20.136V20.94H264.81V20.628C264.81 20.364 264.81 20.232 264.81 20.232C264.81 20.232 264.678 20.232 264.414 20.232H260.31C260.046 20.232 259.914 20.232 259.914 20.232C259.914 20.232 259.914 20.364 259.914 20.628V21.348C259.914 21.612 259.914 21.744 259.914 21.744C259.914 21.744 260.046 21.744 260.31 21.744H264.918C265.398 21.744 265.814 21.92 266.166 22.272C266.518 22.616 266.694 23.032 266.694 23.52V25.224C266.694 25.712 266.518 26.132 266.166 26.484C265.814 26.828 265.398 27 264.918 27H259.83ZM173.956 42V33.36H181.936V35.232H175.84V36.744H180.748V38.616H175.84V42H173.956ZM182.592 42V33.372H189.444C189.932 33.372 190.352 33.548 190.704 33.9C191.056 34.252 191.232 34.668 191.232 35.148V37.38C191.232 37.86 191.056 38.276 190.704 38.628C190.352 38.98 189.932 39.156 189.444 39.156H189.36L191.232 41.364V42H189.312L186.924 39.156L184.452 39.168V42H182.592ZM184.848 37.284H188.952C189.216 37.284 189.348 37.284 189.348 37.284C189.348 37.284 189.348 37.152 189.348 36.888V35.628C189.348 35.364 189.348 35.232 189.348 35.232C189.348 35.232 189.216 35.232 188.952 35.232H184.848C184.584 35.232 184.452 35.232 184.452 35.232C184.452 35.232 184.452 35.364 184.452 35.628V36.888C184.452 37.152 184.452 37.284 184.452 37.284C184.452 37.284 184.584 37.284 184.848 37.284ZM194.258 42C193.77 42 193.35 41.828 192.998 41.484C192.654 41.132 192.482 40.712 192.482 40.224V35.136C192.482 34.648 192.654 34.232 192.998 33.888C193.35 33.536 193.77 33.36 194.258 33.36H199.346C199.826 33.36 200.242 33.536 200.594 33.888C200.946 34.232 201.122 34.648 201.122 35.136V40.224C201.122 40.712 200.946 41.132 200.594 41.484C200.242 41.828 199.826 42 199.346 42H194.258ZM194.738 40.128H198.842C199.106 40.128 199.238 40.128 199.238 40.128C199.238 40.128 199.238 39.996 199.238 39.732V35.628C199.238 35.364 199.238 35.232 199.238 35.232C199.238 35.232 199.106 35.232 198.842 35.232H194.738C194.474 35.232 194.342 35.232 194.342 35.232C194.342 35.232 194.342 35.364 194.342 35.628V39.732C194.342 39.996 194.342 40.128 194.342 40.128C194.342 40.128 194.474 40.128 194.738 40.128ZM202.443 42V33.36H204.363L207.291 36.852L210.207 33.36H212.139V42H210.267V36.204L207.291 39.756L204.303 36.216V42H202.443ZM217.467 42V35.136C217.467 34.648 217.639 34.232 217.983 33.888C218.335 33.536 218.755 33.36 219.243 33.36H224.319C224.807 33.36 225.227 33.536 225.579 33.888C225.931 34.232 226.107 34.648 226.107 35.136V42H224.223V39.216H219.327V42H217.467ZM219.327 37.344H224.223V35.628C224.223 35.364 224.223 35.232 224.223 35.232C224.223 35.232 224.091 35.232 223.827 35.232H219.723C219.459 35.232 219.327 35.232 219.327 35.232C219.327 35.232 219.327 35.364 219.327 35.628V37.344ZM227.487 42V33.348H229.347V40.128H236.127V42H227.487ZM236.838 42V33.348H238.698V40.128H245.478V42H236.838ZM252.997 42V35.232H249.613V33.36H258.253V35.232H254.869V42H252.997ZM259.163 42V33.36H261.023V36.744H266.123V33.36H267.983V42H266.123V38.616H261.023V42H259.163ZM269.382 42V33.36H277.362V35.232H271.266V36.744H276.174V38.616H271.266V40.128H277.362V42H269.382ZM183.952 57V48.36H191.932V50.232H185.836V51.744H190.744V53.616H185.836V57H183.952ZM194.352 57C193.864 57 193.444 56.828 193.092 56.484C192.748 56.132 192.576 55.712 192.576 55.224V48.36H194.436V54.732C194.436 54.996 194.436 55.128 194.436 55.128C194.436 55.128 194.568 55.128 194.832 55.128H198.936C199.2 55.128 199.332 55.128 199.332 55.128C199.332 55.128 199.332 54.996 199.332 54.732V48.36H201.216V55.224C201.216 55.712 201.04 56.132 200.688 56.484C200.336 56.828 199.92 57 199.44 57H194.352ZM205.489 57V50.232H202.105V48.36H210.745V50.232H207.361V57H205.489ZM213.395 57C212.907 57 212.487 56.828 212.135 56.484C211.791 56.132 211.619 55.712 211.619 55.224V48.36H213.479V54.732C213.479 54.996 213.479 55.128 213.479 55.128C213.479 55.128 213.611 55.128 213.875 55.128H217.979C218.243 55.128 218.375 55.128 218.375 55.128C218.375 55.128 218.375 54.996 218.375 54.732V48.36H220.259V55.224C220.259 55.712 220.083 56.132 219.731 56.484C219.379 56.828 218.963 57 218.483 57H213.395ZM221.568 57V48.372H228.42C228.908 48.372 229.328 48.548 229.68 48.9C230.032 49.252 230.208 49.668 230.208 50.148V52.38C230.208 52.86 230.032 53.276 229.68 53.628C229.328 53.98 228.908 54.156 228.42 54.156H228.336L230.208 56.364V57H228.288L225.9 54.156L223.428 54.168V57H221.568ZM223.824 52.284H227.928C228.192 52.284 228.324 52.284 228.324 52.284C228.324 52.284 228.324 52.152 228.324 51.888V50.628C228.324 50.364 228.324 50.232 228.324 50.232C228.324 50.232 228.192 50.232 227.928 50.232H223.824C223.56 50.232 223.428 50.232 223.428 50.232C223.428 50.232 223.428 50.364 223.428 50.628V51.888C223.428 52.152 223.428 52.284 223.428 52.284C223.428 52.284 223.56 52.284 223.824 52.284ZM231.507 57V48.36H239.487V50.232H233.391V51.744H238.299V53.616H233.391V55.128H239.487V57H231.507ZM244.537 57V48.36H246.457L251.293 54.12V48.36H253.177V57H251.257L246.397 51.216V57H244.537ZM254.546 57V48.36H262.526V50.232H256.43V51.744H261.338V53.616H256.43V57H254.546ZM266.263 57V50.232H262.879V48.36H271.519V50.232H268.135V57H266.263ZM203.557 72V63.36H210.409C210.897 63.36 211.317 63.536 211.669 63.888C212.021 64.232 212.197 64.648 212.197 65.136V70.224C212.197 70.712 212.021 71.132 211.669 71.484C211.317 71.828 210.897 72 210.409 72H203.557ZM205.813 70.128H209.917C210.181 70.128 210.313 70.128 210.313 70.128C210.313 70.128 210.313 69.996 210.313 69.732V65.628C210.313 65.364 210.313 65.232 210.313 65.232C210.313 65.232 210.181 65.232 209.917 65.232H205.813C205.549 65.232 205.417 65.232 205.417 65.232C205.417 65.232 205.417 65.364 205.417 65.628V69.732C205.417 69.996 205.417 70.128 205.417 70.128C205.417 70.128 205.549 70.128 205.813 70.128ZM213.529 72V63.372H220.381C220.869 63.372 221.289 63.548 221.641 63.9C221.993 64.252 222.169 64.668 222.169 65.148V67.38C222.169 67.86 221.993 68.276 221.641 68.628C221.289 68.98 220.869 69.156 220.381 69.156H220.297L222.169 71.364V72H220.249L217.861 69.156L215.389 69.168V72H213.529ZM215.785 67.284H219.889C220.153 67.284 220.285 67.284 220.285 67.284C220.285 67.284 220.285 67.152 220.285 66.888V65.628C220.285 65.364 220.285 65.232 220.285 65.232C220.285 65.232 220.153 65.232 219.889 65.232H215.785C215.521 65.232 215.389 65.232 215.389 65.232C215.389 65.232 215.389 65.364 215.389 65.628V66.888C215.389 67.152 215.389 67.284 215.389 67.284C215.389 67.284 215.521 67.284 215.785 67.284ZM225.195 72C224.707 72 224.287 71.828 223.935 71.484C223.591 71.132 223.419 70.712 223.419 70.224V65.136C223.419 64.648 223.591 64.232 223.935 63.888C224.287 63.536 224.707 63.36 225.195 63.36H230.283C230.763 63.36 231.179 63.536 231.531 63.888C231.883 64.232 232.059 64.648 232.059 65.136V70.224C232.059 70.712 231.883 71.132 231.531 71.484C231.179 71.828 230.763 72 230.283 72H225.195ZM225.675 70.128H229.779C230.043 70.128 230.175 70.128 230.175 70.128C230.175 70.128 230.175 69.996 230.175 69.732V65.628C230.175 65.364 230.175 65.232 230.175 65.232C230.175 65.232 230.043 65.232 229.779 65.232H225.675C225.411 65.232 225.279 65.232 225.279 65.232C225.279 65.232 225.279 65.364 225.279 65.628V69.732C225.279 69.996 225.279 70.128 225.279 70.128C225.279 70.128 225.411 70.128 225.675 70.128ZM233.381 72V63.372H240.233C240.721 63.372 241.141 63.548 241.493 63.9C241.845 64.252 242.021 64.668 242.021 65.148V67.38C242.021 67.86 241.845 68.276 241.493 68.628C241.141 68.98 240.721 69.156 240.233 69.156L235.241 69.168V72H233.381ZM235.637 67.284H239.741C240.005 67.284 240.137 67.284 240.137 67.284C240.137 67.284 240.137 67.152 240.137 66.888V65.628C240.137 65.364 240.137 65.232 240.137 65.232C240.137 65.232 240.005 65.232 239.741 65.232H235.637C235.373 65.232 235.241 65.232 235.241 65.232C235.241 65.232 235.241 65.364 235.241 65.628V66.888C235.241 67.152 235.241 67.284 235.241 67.284C235.241 67.284 235.373 67.284 235.637 67.284ZM244.625 72C244.137 72 243.717 71.828 243.365 71.484C243.021 71.132 242.849 70.712 242.849 70.224V69.42H244.709V69.732C244.709 69.996 244.709 70.128 244.709 70.128C244.709 70.128 244.841 70.128 245.105 70.128H249.209C249.473 70.128 249.605 70.128 249.605 70.128C249.605 70.128 249.605 69.996 249.605 69.732V69.012C249.605 68.748 249.605 68.616 249.605 68.616C249.605 68.616 249.473 68.616 249.209 68.616H244.625C244.137 68.616 243.717 68.444 243.365 68.1C243.021 67.748 242.849 67.328 242.849 66.84V65.136C242.849 64.648 243.021 64.232 243.365 63.888C243.717 63.536 244.137 63.36 244.625 63.36H249.713C250.193 63.36 250.609 63.536 250.961 63.888C251.313 64.232 251.489 64.648 251.489 65.136V65.94H249.605V65.628C249.605 65.364 249.605 65.232 249.605 65.232C249.605 65.232 249.473 65.232 249.209 65.232H245.105C244.841 65.232 244.709 65.232 244.709 65.232C244.709 65.232 244.709 65.364 244.709 65.628V66.348C244.709 66.612 244.709 66.744 244.709 66.744C244.709 66.744 244.841 66.744 245.105 66.744H249.713C250.193 66.744 250.609 66.92 250.961 67.272C251.313 67.616 251.489 68.032 251.489 68.52V70.224C251.489 70.712 251.313 71.132 250.961 71.484C250.609 71.828 250.193 72 249.713 72H244.625Z" fill="white"/>
<path d="M70 129C70 129.552 70.4477 130 71 130C71.5523 130 72 129.552 72 129L70 129ZM71.7071 112.293C71.3166 111.902 70.6834 111.902 70.2929 112.293L63.9289 118.657C63.5384 119.047 63.5384 119.681 63.9289 120.071C64.3195 120.462 64.9526 120.462 65.3431 120.071L71 114.414L76.6569 120.071C77.0474 120.462 77.6805 120.462 78.0711 120.071C78.4616 119.681 78.4616 119.047 78.0711 118.657L71.7071 112.293ZM72 129L72 113L70 113L70 129L72 129Z" fill="white"/>
<path d="M150 153C150 152.448 149.552 152 149 152C148.448 152 148 152.448 148 153L150 153ZM148.293 169.707C148.683 170.098 149.317 170.098 149.707 169.707L156.071 163.343C156.462 162.953 156.462 162.319 156.071 161.929C155.681 161.538 155.047 161.538 154.657 161.929L149 167.586L143.343 161.929C142.953 161.538 142.319 161.538 141.929 161.929C141.538 162.319 141.538 162.953 141.929 163.343L148.293 169.707ZM148 153L148 169L150 169L150 153L148 153Z" fill="white"/>
<path d="M306 113C306 112.448 305.552 112 305 112C304.448 112 304 112.448 304 113L306 113ZM304.293 129.707C304.683 130.098 305.317 130.098 305.707 129.707L312.071 123.343C312.462 122.953 312.462 122.319 312.071 121.929C311.681 121.538 311.047 121.538 310.657 121.929L305 127.586L299.343 121.929C298.953 121.538 298.319 121.538 297.929 121.929C297.538 122.319 297.538 122.953 297.929 123.343L304.293 129.707ZM304 113L304 129L306 129L306 113L304 113Z" fill="white"/>
<path d="M226 101C226 101.552 226.448 102 227 102C227.552 102 228 101.552 228 101L226 101ZM227.707 84.2929C227.317 83.9024 226.683 83.9024 226.293 84.2929L219.929 90.6569C219.538 91.0474 219.538 91.6805 219.929 92.0711C220.319 92.4616 220.953 92.4616 221.343 92.0711L227 86.4142L232.657 92.0711C233.047 92.4616 233.681 92.4616 234.071 92.0711C234.462 91.6805 234.462 91.0474 234.071 90.6569L227.707 84.2929ZM228 101L228 85L226 85L226 101L228 101Z" fill="white"/>
<defs>
<filter id="filter0_d" x="-42.5929" y="38.1064" width="466.247" height="188.641" filterUnits="userSpaceOnUse" color-interpolation-filters="sRGB">
<feFlood flood-opacity="0" result="BackgroundImageFix"/>
<feColorMatrix in="SourceAlpha" type="matrix" values="0 0 0 0 0 0 0 0 0 0 0 0 0 0 0 0 0 0 127 0" result="hardAlpha"/>
<feOffset dy="15"/>
<feGaussianBlur stdDeviation="20"/>
<feComposite in2="hardAlpha" operator="out"/>
<feColorMatrix type="matrix" values="0 0 0 0 0.0196078 0 0 0 0 0.843137 0 0 0 0 0.909804 0 0 0 1 0"/>
<feBlend mode="normal" in2="BackgroundImageFix" result="effect1_dropShadow"/>
<feBlend mode="normal" in="SourceGraphic" in2="effect1_dropShadow" result="shape"/>
</filter>
</defs>
</svg>
